<?xml version="1.0" encoding="utf-8"?>
<!-- Generator: Adobe Illustrator 26.2.1, SVG Export Plug-In . SVG Version: 6.00 Build 0)  -->
<svg version="1.1" id="Laag_1" xmlns="http://www.w3.org/2000/svg" xmlns:xlink="http://www.w3.org/1999/xlink" x="0px" y="0px"
	 viewBox="0 0 350 350" style="enable-background:new 0 0 350 350;" xml:space="preserve">
<style type="text/css">
	.st0{fill:#3E5062;}
	.st1{fill:#AF8452;}
	.st2{fill:#5B9E8C;}
</style>
<g>
	<path class="st0" d="M254.3,128.8c0-3.8-1.1-7.3-3.1-10.2c-3-4.6-8-7.7-13.8-8.2c-0.6,0-1.1-0.1-1.7-0.1
		c-10.2,0-18.5,8.3-18.5,18.5c0,3.4,0.9,6.5,2.5,9.2c2.8,4.8,7.6,8.2,13.3,9.1c0.9,0.1,1.8,0.2,2.7,0.2
		C246,147.4,254.3,139.1,254.3,128.8L254.3,128.8z M178.5,53c0.6-1.8,1-3.8,1-5.8c0-3.7-1.1-7.1-3-10c-3.3-5.1-9-8.5-15.5-8.5
		s-12.2,3.4-15.5,8.5c-1.9,2.9-3,6.3-3,10c0,2,0.3,4,1,5.8c2.4,7.4,9.4,12.7,17.6,12.7C169.2,65.6,176.1,60.3,178.5,53L178.5,53z"/>
	<path class="st1" d="M207.9,312.9c1.2-2.4,1.8-5.1,1.8-8c0-2.8-0.7-5.5-1.8-7.9c-3-6.3-9.3-10.6-16.7-10.6s-13.7,4.3-16.7,10.6
		c-1.1,2.4-1.8,5.1-1.8,7.9c0,2.9,0.7,5.5,1.8,8c3,6.2,9.3,10.6,16.7,10.6C198.6,323.4,205,319.1,207.9,312.9L207.9,312.9z"/>
	<path class="st2" d="M277.7,297.6c1.5-20.7,0.8-81.5-52.5-121.6c7.7-5.7,14.2-11.9,19.8-18.4c-3,1-6.1,1.5-9.4,1.5
		c-4.3,0-8.4-0.9-12-2.5c-3.8,3.5-8,6.8-12.6,10c-5.1-3-10.6-5.8-16.5-8.4c6.2-3.6,11.7-7.6,16.5-11.7c-3.3-4.7-5.4-10.3-5.6-16.4
		c-7.7,7.7-17.7,14.7-30.6,20.3c-45.2-19.6-54.8-56.6-55.5-81.5h20.5c-4.3-4.2-7.4-9.7-8.6-15.8h-27.4l-0.3,7.6
		c-0.8,21.2,3.4,69.4,51.7,97.5l19.6,9.3c0.8,0.3,1.5,0.6,2.3,0.9c6.4,2.3,12.3,4.9,17.8,7.7l16,9.4c51.5,35.6,52.2,92.2,50.9,111.1
		c-0.7,9.2-8.4,16.5-17.7,16.5h-23.7c-1.7,6.4-5.5,11.9-10.5,15.8h34.4C261.8,328.7,276.5,315,277.7,297.6L277.7,297.6z M182,68.8
		h48.5c-0.3,9.5-1.9,20.7-6.2,32c3.5-1.4,7.4-2.2,11.4-2.2c2,0,3.9,0.2,5.7,0.6c4.6-15.3,5.2-29.4,4.9-38.6L246,53h-55.4
		C189.5,59.1,186.4,64.6,182,68.8L182,68.8z M265.8,125.1c13.4-30.3,13-60,11.8-73.3c-1.4-17.2-16.1-30.6-33.4-30.6h-67.6
		c6,3.6,10.6,9.2,12.9,15.8h54.7c9.1,0,16.9,7.1,17.6,16.1c0.9,10,1.2,30.6-6,53.1C261.2,110.9,264.8,117.7,265.8,125.1L265.8,125.1
		z M145.4,21.2h-39.6c-17.3,0-32,13.5-33.4,30.6c-1.8,21.1-1.8,83.6,52.3,124.1c-53.2,40.1-54,100.9-52.4,121.6
		c1.3,17.5,16,31.1,33.4,31.1h66.9c-5-4-8.8-9.5-10.5-15.8h-56.4c-9.2,0-17-7.2-17.7-16.5c-1.4-18.9-0.7-75.5,50.8-111.1
		c5.1,3,10.6,5.8,16.5,8.4c-47.6,27.9-52.3,74.8-51.8,95.5l0.2,7.7H162c1.7-6.4,5.5-11.9,10.5-15.8h-53
		c1.1-24.3,11.1-60.1,55.5-79.7c44.4,19.5,54.3,55.3,55.5,79.7H210c5,4,8.8,9.5,10.5,15.8h25.8l0.2-7.7c0.5-20.7-4.2-67.6-51.8-95.5
		l-19.6-9.3c-1-0.4-2-0.8-3.1-1.1c-6.1-2.2-11.8-4.7-17-7.3l-16-9.4c-52.3-35.9-52.3-94-50.7-113.3c0.8-9,8.5-16.1,17.6-16.1h26.7
		C134.8,30.4,139.4,24.8,145.4,21.2L145.4,21.2z"/>
</g>
</svg>
