<?xml version="1.0" encoding="utf-8"?>
<!-- Generator: Adobe Illustrator 26.1.0, SVG Export Plug-In . SVG Version: 6.00 Build 0)  -->
<svg version="1.1" id="Laag_1" xmlns="http://www.w3.org/2000/svg" xmlns:xlink="http://www.w3.org/1999/xlink" x="0px" y="0px"
	 viewBox="0 0 1000 500" style="enable-background:new 0 0 1000 500;" xml:space="preserve">
<style type="text/css">
	.st0{fill:#3E5062;}
	.st1{fill:#AF8452;}
	.st2{fill:#5B9E8C;}
</style>
<g>
	<path class="st0" d="M581.2,161.7c0-3.8-1.1-7.3-3.1-10.2c-3-4.6-8-7.7-13.8-8.2c-0.6,0-1.1-0.1-1.7-0.1
		c-10.2,0-18.5,8.3-18.5,18.5c0,3.4,0.9,6.5,2.5,9.2c2.8,4.8,7.6,8.2,13.3,9.1c0.9,0.1,1.8,0.2,2.7,0.2
		C572.9,180.3,581.2,172,581.2,161.7L581.2,161.7z M505.4,85.9c0.6-1.8,1-3.8,1-5.8c0-3.7-1.1-7.1-3-10c-3.3-5.1-9-8.5-15.5-8.5
		s-12.2,3.4-15.5,8.5c-1.9,2.9-3,6.3-3,10c0,2,0.3,4,1,5.8c2.4,7.4,9.4,12.7,17.6,12.7C496.1,98.5,503,93.2,505.4,85.9L505.4,85.9z
		 M338.9,282.5h30.6V121.4h-30.8v46.5l-4.4-0.9c-8.8-1.5-15.6-2.3-20.5-2.3c-16,0-27.9,4.8-35.8,14.4c-7.9,9.6-11.9,24.9-11.9,45.8
		c0,20.9,3.3,36.3,9.9,45.9c6.6,9.7,18.3,14.5,35,14.5c7.8,0,17.1-2.5,27.9-7.6V282.5L338.9,282.5z M338.7,254.2l-3.2,0.7
		c-7.1,1.8-13.8,2.8-20.1,2.8c-6.4,0-10.9-2.5-13.7-7.6s-4.1-13.6-4.1-25.6c0-22.1,6.2-33.2,18.6-33.2c6.6,0,14.1,0.8,22.6,2.3
		L338.7,254.2L338.7,254.2z M235,311.9c5.4-7.4,8.2-19,8.2-34.6V167.4h-30.9V277c0,6.8-0.6,11.9-1.8,15.5c-1.2,3.6-3.2,6.7-6,9.3
		s-7.6,6.2-14.5,10.8l12.2,22.8C218.6,327.2,229.5,319.3,235,311.9L235,311.9z M152.7,282.5h30.8V167.4h-30.8V282.5L152.7,282.5z
		 M94,154.1h41.4V126H20.3v28.1h41.9v128.5H94L94,154.1L94,154.1z"/>
	<path class="st1" d="M975.8,196.2l0.5-25.6l-7.6-1.4c-15.7-2.9-28-4.4-37.1-4.4c-13.1,0-23.7,3.1-32,9.3s-12.4,15.4-12.4,27.6
		c0,12.2,2.9,20.7,8.7,25.4c5.8,4.8,14.7,8.1,26.6,10.1s19.3,3.7,22.1,5.1c2.8,1.4,4.3,3.5,4.3,6.4s-1.3,5.1-4,6.6
		s-7.8,2.2-15.2,2.2c-7.5,0-20.7-1.2-39.7-3.7l-0.9,25.8l7.4,1.4c14.4,2.8,26.7,4.1,36.8,4.1c30.9,0,46.3-12.4,46.3-37.3
		c0-11.4-2.6-19.6-7.8-24.6c-5.2-5.1-14-8.7-26.4-10.9s-20-3.9-23-5.1c-3-1.2-4.5-3.2-4.5-6.2s1.1-5.2,3.3-6.6
		c2.2-1.4,7.1-2.1,14.7-2.1C943.5,192.5,956.8,193.7,975.8,196.2L975.8,196.2z M833.8,282.5h30.8V167.4h-30.8V282.5L833.8,282.5z
		 M809.4,238.1l2.3-21.4c0-34.7-16.7-52-50.2-52c-33.9,0-50.9,20.6-50.9,61.9c0,20.7,3.9,35.7,11.7,44.9s20.4,13.8,37.8,13.8
		c14.3,0,30.2-2.2,47.9-6.4l-0.5-22.8l-6.4,0.7c-11.2,0.9-23.9,1.4-38.2,1.4c-6.8,0-11.9-1.6-15.5-4.7c-3.6-3.1-5.5-8.2-5.6-15.3
		h67.6V238.1z M781.3,214.6h-39.8c0.2-8.9,1.7-15.2,4.7-19s8.1-5.6,15.4-5.6c7.3,0,12.4,1.8,15.3,5.4
		C779.8,199,781.3,205.4,781.3,214.6L781.3,214.6z M666.2,203.8c8.9-2.8,19.6-5.4,32-8.1v-31.1c-11.7,2.3-23.9,7.3-36.8,15v-12.2
		h-30.6v115.1h30.8v-77.1L666.2,203.8L666.2,203.8z M534.8,345.8c1.2-2.4,1.8-5.1,1.8-8c0-2.8-0.7-5.5-1.8-7.9
		c-3-6.3-9.3-10.6-16.7-10.6s-13.7,4.3-16.7,10.6c-1.1,2.4-1.8,5.1-1.8,7.9c0,2.9,0.7,5.5,1.8,8c3,6.2,9.3,10.6,16.7,10.6
		C525.5,356.3,531.9,352,534.8,345.8L534.8,345.8z"/>
	<path class="st2" d="M974.3,318.1l5.2,0.4v-7.4l-11.1,0.3l-1.1-0.2c-1.9-0.5-3.9-0.7-5.9-0.7c-4.4,0-7.9,1-10.6,3s-4,5.2-4,9.6
		c0,4.4,1.6,7.7,4.7,10l-0.6,1c-1.4,2.1-2.1,3.6-2.1,4.6c0,2.4,0.9,4.1,2.6,5.3c-3.3,2.6-5,5.3-5,8.2c0,3.6,1.4,6.2,4.2,7.5
		s6.8,2.1,12,2.1s9.3-0.9,12.4-2.8c3-1.9,4.6-4.8,4.6-8.8c0-3.9-1.1-6.7-3.2-8.2s-6.1-2.3-11.9-2.3c-2.9,0-4.8-0.2-5.5-0.5
		c-0.8-0.3-1.2-0.8-1.2-1.6s0.2-1.7,0.7-2.9c0.8,0.2,1.8,0.3,2.8,0.3c5,0,8.7-0.9,11.1-2.6c2.4-1.8,3.5-4.9,3.5-9.6
		C975.8,321.2,975.3,319.6,974.3,318.1L974.3,318.1z M955.5,351.2c0-1.4,0.6-2.7,1.9-3.9l6.2,0.5c2.7,0,4.4,0.2,5.3,0.6
		c0.8,0.3,1.2,1.1,1.2,2.4c0,2.3-2.4,3.5-7.3,3.5C958,354.1,955.5,353.1,955.5,351.2L955.5,351.2z M966.7,322.8
		c0,3.4-1.8,5.1-5.3,5.1s-5.3-1.7-5.3-5.1c0-3.4,1.8-5.1,5.3-5.1S966.7,319.4,966.7,322.8L966.7,322.8z M933,322.2
		c2.7-0.8,5.9-1.6,9.6-2.4v-9.3c-3.5,0.7-7.2,2.2-11.1,4.5v-3.7h-9.2v34.5h9.3v-23.2L933,322.2L933,322.2z M915,332.5l0.7-6.4
		c0-10.4-5-15.6-15.1-15.6c-10.2,0-15.3,6.2-15.3,18.6c0,6.2,1.2,10.7,3.5,13.5c2.4,2.8,6.1,4.2,11.4,4.2c4.3,0,9.1-0.6,14.4-1.9
		l-0.1-6.9l-1.9,0.2c-3.4,0.3-7.2,0.4-11.5,0.4c-2,0-3.6-0.5-4.7-1.4s-1.7-2.5-1.7-4.6L915,332.5L915,332.5z M906.6,325.4h-12
		c0-2.7,0.5-4.6,1.4-5.7c0.9-1.1,2.4-1.7,4.6-1.7s3.7,0.5,4.6,1.6C906.2,320.7,906.6,322.6,906.6,325.4L906.6,325.4z M876.3,342.7
		c2.6-2.6,3.9-7.3,3.9-14.2c0-6.8-1.1-11.6-3.4-14.2c-2.2-2.7-5.8-4-10.6-4c-2,0-4.5,0.6-7.5,1.9v-14.9h-9.3v48.3l2.6,0.3
		c5.3,0.5,8.9,0.7,10.9,0.7C869.2,346.7,873.7,345.4,876.3,342.7L876.3,342.7z M870.7,328c0,3.9-0.5,6.6-1.6,8.1s-3.1,2.2-6.2,2.2
		c-0.7,0-2.1-0.1-4.2-0.3v-18.5l1-0.2c1.7-0.5,3.4-0.7,5.3-0.7C868.8,318.7,870.7,321.8,870.7,328L870.7,328z M831.9,345.8h9.3V327
		c0-5.7-0.9-9.9-2.6-12.6c-1.8-2.7-4.9-4.1-9.6-4.1c-2.6,0-5.5,0.9-8.7,2.8v-1.9h-9.2v34.6h9.3v-25.9l0.8-0.3c1.8-0.6,3.6-1,5.5-1
		c2.1,0,3.5,0.7,4.2,2.1c0.7,1.4,1,3.6,1,6.5L831.9,345.8L831.9,345.8z M803.8,332.5l0.7-6.4c0-10.4-5-15.6-15.1-15.6
		c-10.2,0-15.3,6.2-15.3,18.6c0,6.2,1.2,10.7,3.5,13.5c2.4,2.8,6.1,4.2,11.4,4.2c4.3,0,9.1-0.6,14.4-1.9l-0.1-6.9l-1.9,0.2
		c-3.4,0.3-7.2,0.4-11.5,0.4c-2,0-3.6-0.5-4.7-1.4c-1.1-0.9-1.7-2.5-1.7-4.6L803.8,332.5L803.8,332.5z M795.4,325.4h-12
		c0-2.7,0.5-4.6,1.4-5.7c0.9-1.1,2.4-1.7,4.6-1.7c2.2,0,3.7,0.5,4.6,1.6C794.9,320.7,795.4,322.6,795.4,325.4L795.4,325.4z
		 M758,345.8h9.2v-48.5h-9.3v14l-1.3-0.3c-2.6-0.5-4.7-0.7-6.2-0.7c-4.8,0-8.4,1.4-10.8,4.3c-2.4,2.9-3.6,7.5-3.6,13.8
		s1,10.9,3,13.8c2,2.9,5.5,4.4,10.5,4.4c2.4,0,5.1-0.8,8.4-2.3L758,345.8L758,345.8z M758,337.3l-1,0.2c-2.1,0.6-4.1,0.8-6.1,0.8
		c-1.9,0-3.3-0.8-4.1-2.3s-1.2-4.1-1.2-7.7c0-6.6,1.9-10,5.6-10c2,0,4.2,0.2,6.8,0.7V337.3L758,337.3z M722.7,322.2
		c2.7-0.8,5.9-1.6,9.6-2.4v-9.3c-3.5,0.7-7.2,2.2-11.1,4.5v-3.7H712v34.5h9.3v-23.2L722.7,322.2L722.7,322.2z M705.2,346.7l0.3-7
		c-0.9-0.2-1.5-0.5-1.7-0.9c-0.3-0.4-0.5-1.2-0.6-2.3v-14.4c0-4.1-1-7-2.9-8.9c-2-1.8-5.2-2.8-9.6-2.8c-4.5,0-9.1,0.7-14.1,2
		l0.3,6.4l13-0.6c1.4,0,2.5,0.3,3.1,0.8s1,1.5,1,2.9v2.1l-7.4,0.6c-4.1,0.3-7.2,1.2-9.1,2.7c-2,1.5-3,4.2-3,7.9
		c0,7.6,3.6,11.4,10.7,11.4c3.5,0,6.9-0.8,10.2-2.4c1.4,1,2.8,1.6,4.3,1.9C701,346.5,702.9,346.7,705.2,346.7L705.2,346.7z
		 M693.9,338l-1,0.3c-2.1,0.6-4,0.8-5.7,0.8c-2.3,0-3.4-1.3-3.4-3.8s1.3-3.9,3.9-4.2l6.3-0.6L693.9,338L693.9,338z M657.7,345.8h9.6
		v-47h-9.6V318h-17.5v-19.2h-9.6v47h9.6v-19.5h17.5V345.8L657.7,345.8z M604.6,330.5c1.5-20.7,0.8-81.5-52.5-121.6
		c7.7-5.7,14.2-11.9,19.8-18.4c-3,1-6.1,1.5-9.4,1.5c-4.3,0-8.4-0.9-12-2.5c-3.8,3.5-8,6.8-12.6,10c-5.1-3-10.6-5.8-16.5-8.4
		c6.2-3.6,11.7-7.6,16.5-11.7c-3.3-4.7-5.4-10.3-5.6-16.4c-7.7,7.7-17.7,14.7-30.6,20.3c-45.2-19.6-54.8-56.6-55.5-81.5h20.5
		c-4.3-4.2-7.4-9.7-8.6-15.8h-27.4l-0.3,7.6c-0.8,21.2,3.4,69.4,51.7,97.5l19.6,9.3c0.8,0.3,1.5,0.6,2.3,0.9
		c6.4,2.3,12.3,4.9,17.8,7.7l16,9.4c51.5,35.6,52.2,92.2,50.9,111.1c-0.7,9.2-8.4,16.5-17.7,16.5h-23.7c-1.7,6.4-5.5,11.9-10.5,15.8
		h34.4C588.7,361.6,603.4,347.9,604.6,330.5L604.6,330.5z M508.9,101.7h48.5c-0.3,9.5-1.9,20.7-6.2,32c3.5-1.4,7.4-2.2,11.4-2.2
		c2,0,3.9,0.2,5.7,0.6c4.6-15.3,5.2-29.4,4.9-38.6l-0.3-7.6h-55.4C516.4,92,513.3,97.5,508.9,101.7L508.9,101.7z M592.7,158
		c13.4-30.3,13-60,11.8-73.3c-1.4-17.2-16.1-30.6-33.4-30.6h-67.6c6,3.6,10.6,9.2,12.9,15.8h54.7c9.1,0,16.9,7.1,17.6,16.1
		c0.9,10,1.2,30.6-6,53.1C588.1,143.9,591.7,150.6,592.7,158L592.7,158z M472.3,54.1h-39.6c-17.3,0-32,13.5-33.4,30.6
		c-1.8,21.1-1.8,83.6,52.3,124.1c-53.2,40.1-54,100.9-52.4,121.6c1.3,17.5,16,31.1,33.4,31.1h66.9c-5-4-8.8-9.5-10.5-15.8h-56.4
		c-9.2,0-17-7.2-17.7-16.5c-1.4-18.9-0.7-75.5,50.8-111.1c5.1,3,10.6,5.8,16.5,8.4c-47.6,27.9-52.3,74.8-51.8,95.5l0.2,7.7h58.3
		c1.7-6.4,5.5-11.9,10.5-15.8h-53c1.1-24.3,11.1-60.1,55.5-79.7c44.4,19.5,54.3,55.3,55.5,79.7h-20.5c5,4,8.8,9.5,10.5,15.8h25.8
		l0.2-7.7c0.5-20.7-4.2-67.6-51.8-95.5l-19.6-9.3c-1-0.4-2-0.8-3.1-1.1c-6.1-2.2-11.8-4.7-17-7.3l-16-9.4
		c-52.3-35.9-52.3-94-50.7-113.3c0.8-9,8.5-16.1,17.6-16.1h26.7C461.7,63.3,466.3,57.7,472.3,54.1L472.3,54.1z"/>
	<path class="st0" d="M230.5,445.3h6.5l13.6-26.2h-3.3l-12,23.5h-1.8l-0.7-23.5h-3.1L230.5,445.3L230.5,445.3z M253.8,432.9h2.9
		c5.1,0,8.8-0.6,11.2-1.9c2.4-1.2,3.6-3.4,3.6-6.5c0-4-2.5-6-7.4-6c-2.3,0-4.4,0.6-6.3,1.8s-3.3,2.7-4.4,4.6
		c-2.3,4-3.4,8.3-3.4,13.1c0,5.2,2.7,7.8,8.2,7.8c2.8,0,5.7-0.5,8.7-1.6l0.2-2.6l-1.3,0.4c-2.5,0.6-5,0.9-7.7,0.9
		c-1.4,0-2.6-0.5-3.5-1.4c-1-0.9-1.4-2.2-1.4-3.7C253.2,436.3,253.4,434.7,253.8,432.9L253.8,432.9L253.8,432.9z M254.3,430.3
		c1.9-6.1,5.1-9.1,9.7-9.1c2.9,0,4.4,1.1,4.4,3.3s-0.9,3.7-2.6,4.5s-4.5,1.2-8.4,1.2L254.3,430.3L254.3,430.3z M275.9,445.3
		l4.5-19.4l1.6-0.8c3.3-1.7,6-2.8,8-3.3l0.8-3.2c-3.2,0.7-6.5,2.2-9.8,4.5l0.9-3.9h-3.1l-6.1,26.2L275.9,445.3L275.9,445.3z
		 M292.5,445.3l8.8-37.9h-3.1l-8.8,37.9H292.5L292.5,445.3z M305.1,432.9h2.9c5.1,0,8.8-0.6,11.2-1.9s3.6-3.4,3.6-6.5
		c0-4-2.5-6-7.4-6c-2.3,0-4.4,0.6-6.3,1.8c-1.9,1.2-3.3,2.7-4.4,4.6c-2.3,4-3.4,8.3-3.4,13.1c0,5.2,2.7,7.8,8.2,7.8
		c2.8,0,5.7-0.5,8.7-1.6l0.2-2.6l-1.3,0.4c-2.5,0.6-5,0.9-7.7,0.9c-1.4,0-2.6-0.5-3.5-1.4c-1-0.9-1.4-2.2-1.4-3.7
		C304.4,436.3,304.7,434.7,305.1,432.9L305.1,432.9L305.1,432.9z M305.6,430.3c1.9-6.1,5.1-9.1,9.7-9.1c2.9,0,4.4,1.1,4.4,3.3
		s-0.9,3.7-2.6,4.5c-1.7,0.8-4.5,1.2-8.4,1.2L305.6,430.3L305.6,430.3z M334.4,445.2c2.4-1,4.5-2.7,6.3-5l-1.2,5.1h3l8.8-37.9h-3
		l-2.8,12.1l-1.1-0.2c-2.3-0.5-4.3-0.7-6.1-0.7c-2.6,0-5,1.1-7,3.2c-2,2.1-3.6,4.7-4.6,7.7s-1.5,6-1.5,9.1c0,4.9,2.1,7.3,6.4,7.3
		C332.5,445.8,333.4,445.6,334.4,445.2L334.4,445.2L334.4,445.2z M341.6,436.3l-1.4,1.7c-0.9,1.2-2.2,2.3-3.7,3.4
		c-1.5,1.1-2.8,1.7-4,1.7c-2.7,0-4.1-1.5-4.1-4.5c0-2.5,0.4-5,1.1-7.6c0.7-2.6,1.9-4.8,3.4-6.7c1.6-1.9,3.4-2.9,5.4-2.9
		s4.2,0.3,6.6,0.8L341.6,436.3L341.6,436.3z M355,432.9h2.9c5.1,0,8.8-0.6,11.2-1.9c2.4-1.2,3.6-3.4,3.6-6.5c0-4-2.5-6-7.4-6
		c-2.3,0-4.4,0.6-6.3,1.8c-1.9,1.2-3.3,2.7-4.4,4.6c-2.3,4-3.4,8.3-3.4,13.1c0,5.2,2.7,7.8,8.2,7.8c2.8,0,5.7-0.5,8.7-1.6l0.2-2.6
		L367,442c-2.5,0.6-5,0.9-7.7,0.9c-1.4,0-2.6-0.5-3.5-1.4c-1-0.9-1.4-2.2-1.4-3.7C354.4,436.3,354.6,434.7,355,432.9L355,432.9
		L355,432.9z M355.5,430.3c1.9-6.1,5.1-9.1,9.7-9.1c2.9,0,4.4,1.1,4.4,3.3s-0.9,3.7-2.6,4.5c-1.7,0.8-4.5,1.2-8.4,1.2L355.5,430.3
		L355.5,430.3z M388.2,419.2c-2.4,1-4.5,2.6-6.2,5l1.1-5.1h-3l-6.1,26.2h3.1l4-17.4l1.3-1.6c0.9-1.1,2.1-2.2,3.6-3.3
		s2.8-1.6,3.9-1.6c2.6,0,3.9,1.4,3.9,4.1c0,1.5-0.3,3.7-1,6.6l-3.1,13.2h3.1l3.2-13.4c0.7-2.9,1.1-5.3,1.1-7.1s-0.5-3.3-1.6-4.5
		c-1-1.2-2.6-1.7-4.6-1.7C390,418.5,389.1,418.7,388.2,419.2L388.2,419.2L388.2,419.2z M426.4,432.7l0.7-2.9h-12.8l-0.7,2.9H426.4
		L426.4,432.7z M455.8,419.2c-2.3,1-4.4,2.7-6.2,5l3.9-16.8h-3.2l-8.8,37.9h3.2l4-17.3l1.4-1.7c0.9-1.1,2.1-2.2,3.6-3.3
		s2.8-1.7,3.9-1.7c2.6,0,3.9,1.4,3.9,4.1c0,1.7-0.3,3.9-0.9,6.6l-3.1,13.2h3.1l3.1-13.3c0.7-3,1-5.5,1-7.3s-0.5-3.3-1.6-4.4
		c-1.1-1.2-2.6-1.7-4.5-1.7C457.7,418.5,456.8,418.7,455.8,419.2L455.8,419.2L455.8,419.2z M472.6,432.9h2.9c5.1,0,8.8-0.6,11.2-1.9
		c2.4-1.2,3.6-3.4,3.6-6.5c0-4-2.5-6-7.4-6c-2.3,0-4.4,0.6-6.3,1.8c-1.9,1.2-3.3,2.7-4.4,4.6c-2.3,4-3.4,8.3-3.4,13.1
		c0,5.2,2.7,7.8,8.2,7.8c2.8,0,5.7-0.5,8.7-1.6l0.2-2.6l-1.3,0.4c-2.5,0.6-5,0.9-7.7,0.9c-1.4,0-2.6-0.5-3.5-1.4
		c-1-0.9-1.4-2.2-1.4-3.7C472,436.3,472.2,434.7,472.6,432.9L472.6,432.9L472.6,432.9z M473.1,430.3c1.9-6.1,5.1-9.1,9.7-9.1
		c2.9,0,4.4,1.1,4.4,3.3s-0.9,3.7-2.6,4.5c-1.7,0.8-4.5,1.2-8.4,1.2L473.1,430.3L473.1,430.3z M502,445.2c2.4-1,4.5-2.7,6.3-5
		l-1.2,5.1h3l8.8-37.9h-3.2l-2.8,12.1l-1.1-0.2c-2.3-0.5-4.3-0.7-6.1-0.7c-2.6,0-5,1.1-7,3.2c-2,2.1-3.6,4.7-4.6,7.7s-1.5,6-1.5,9.1
		c0,4.9,2.1,7.3,6.4,7.3C500.1,445.8,501,445.6,502,445.2L502,445.2L502,445.2z M509.2,436.3l-1.4,1.7c-0.9,1.2-2.2,2.3-3.7,3.4
		c-1.5,1.1-2.8,1.7-4,1.7c-2.7,0-4.1-1.5-4.1-4.5c0-2.5,0.4-5,1.1-7.6c0.7-2.6,1.9-4.8,3.4-6.7c1.6-1.9,3.4-2.9,5.4-2.9
		s4.2,0.3,6.6,0.8L509.2,436.3L509.2,436.3z M522.6,432.9h2.9c5.1,0,8.8-0.6,11.2-1.9c2.4-1.2,3.6-3.4,3.6-6.5c0-4-2.5-6-7.4-6
		c-2.3,0-4.4,0.6-6.3,1.8c-1.9,1.2-3.3,2.7-4.4,4.6c-2.3,4-3.4,8.3-3.4,13.1c0,5.2,2.7,7.8,8.2,7.8c2.8,0,5.7-0.5,8.7-1.6l0.2-2.6
		l-1.3,0.4c-2.4,0.6-5,0.9-7.7,0.9c-1.4,0-2.6-0.5-3.5-1.4c-1-0.9-1.4-2.2-1.4-3.7C521.9,436.3,522.1,434.7,522.6,432.9L522.6,432.9
		L522.6,432.9z M523,430.3c1.9-6.1,5.1-9.1,9.7-9.1c2.9,0,4.4,1.1,4.4,3.3s-0.9,3.7-2.6,4.5c-1.7,0.8-4.5,1.2-8.4,1.2L523,430.3
		L523,430.3z M555.7,419.2c-2.4,1-4.5,2.6-6.2,5l1.1-5.1h-3l-6.1,26.2h3.2l4-17.4l1.3-1.6c0.9-1.1,2.1-2.2,3.6-3.3s2.8-1.6,3.9-1.6
		c2.6,0,3.9,1.4,3.9,4.1c0,1.5-0.3,3.7-1,6.6l-3.1,13.2h3.1l3.1-13.4c0.7-2.9,1-5.3,1-7.1s-0.5-3.3-1.6-4.5c-1-1.2-2.6-1.7-4.6-1.7
		C557.6,418.5,556.7,418.7,555.7,419.2L555.7,419.2L555.7,419.2z M594,432.7l0.7-2.9h-12.9l-0.7,2.9H594L594,432.7z M615.6,435.7
		l3.3-13.9h7.8l0.7-2.8h-7.8l2-8h-3.3l-1.9,8h-3.6l-0.7,2.8h3.6l-3.2,13.7c-0.6,2.4-0.9,4.3-0.9,5.7s0.5,2.5,1.4,3.4
		c0.9,0.8,2.2,1.3,3.7,1.3c1.6,0,3.2-0.2,5.1-0.6l0.2-2.5l-4.2,0.3c-1.9,0-2.9-0.9-2.9-2.7C614.9,439.2,615.1,437.6,615.6,435.7
		L615.6,435.7L615.6,435.7z M630.6,424.1c-2.5,3.7-3.8,8.2-3.8,13.4c0,5.5,2.9,8.3,8.6,8.3c4,0,7.2-1.8,9.7-5.4
		c2.5-3.6,3.7-8,3.7-13.2c0-5.8-2.9-8.7-8.8-8.7C636.2,418.6,633.1,420.4,630.6,424.1L630.6,424.1z M630,437.5
		c0-4.4,0.9-8.2,2.8-11.4c1.9-3.2,4.3-4.8,7.2-4.8c1.9,0,3.3,0.5,4.2,1.6s1.4,2.5,1.4,4.3c0,4.4-0.9,8.1-2.8,11.2
		c-1.9,3.1-4.3,4.6-7.3,4.6C631.8,443,630,441.2,630,437.5L630,437.5L630,437.5z M656.5,432.9h2.9c5.1,0,8.8-0.6,11.2-1.9
		c2.4-1.2,3.6-3.4,3.6-6.5c0-4-2.5-6-7.4-6c-2.3,0-4.4,0.6-6.3,1.8c-1.9,1.2-3.3,2.7-4.4,4.6c-2.3,4-3.4,8.3-3.4,13.1
		c0,5.2,2.7,7.8,8.2,7.8c2.8,0,5.7-0.5,8.7-1.6l0.2-2.6l-1.3,0.4c-2.5,0.6-5,0.9-7.7,0.9c-1.4,0-2.6-0.5-3.5-1.4
		c-1-0.9-1.4-2.2-1.4-3.7C655.9,436.3,656.1,434.7,656.5,432.9L656.5,432.9L656.5,432.9z M657,430.3c1.9-6.1,5.1-9.1,9.7-9.1
		c2.9,0,4.4,1.1,4.4,3.3s-0.9,3.7-2.6,4.5c-1.7,0.8-4.5,1.2-8.4,1.2L657,430.3L657,430.3z M681.6,432.4l3.8-0.1l4.9,13h3.4
		l-5.4-14.2l11.6-12.1h-3.7L686,429.6l-3.7,0.1l5.1-22.3h-3.1l-8.8,37.9h3.2L681.6,432.4L681.6,432.4z M702.8,424.1
		c-2.5,3.7-3.8,8.2-3.8,13.4c0,5.5,2.9,8.3,8.6,8.3c4,0,7.2-1.8,9.7-5.4c2.5-3.6,3.7-8,3.7-13.2c0-5.8-2.9-8.7-8.8-8.7
		C708.4,418.6,705.3,420.4,702.8,424.1L702.8,424.1z M702.2,437.5c0-4.4,0.9-8.2,2.8-11.4c1.9-3.2,4.3-4.8,7.2-4.8
		c1.9,0,3.3,0.5,4.2,1.6s1.4,2.5,1.4,4.3c0,4.4-0.9,8.1-2.8,11.2c-1.9,3.1-4.3,4.6-7.3,4.6C704,443,702.2,441.2,702.2,437.5
		L702.2,437.5L702.2,437.5z M742.5,432.1l-3.1,13.2h3.1l3.1-13.3c0.5-2.1,0.8-4,0.9-5.5l1.2-1.3c0.8-0.9,1.8-1.7,3.1-2.6
		c1.3-0.9,2.5-1.3,3.5-1.3c2.6,0,3.9,1.4,3.9,4.3c0,1.4-0.3,3.6-1,6.4l-3.1,13.2h3.1l3.1-13.3c0.7-3.2,1.1-5.7,1.1-7.4
		s-0.5-3.1-1.6-4.3s-2.5-1.7-4.3-1.7s-3.6,0.6-5.3,1.7c-0.7,0.5-1.4,1.1-2.3,1.8c-0.9,0.8-1.4,1.2-1.5,1.4c-0.2-1.2-0.6-2.2-1.4-3.2
		c-0.3-0.5-0.9-0.9-1.7-1.2s-1.6-0.5-2.6-0.5s-1.9,0.2-2.9,0.6c-2.3,0.9-4.4,2.6-6.2,5l1-5.1h-3l-6.1,26.2h3.1l4-17.4l1.3-1.6
		c0.9-1.1,2.1-2.2,3.6-3.3s2.8-1.6,3.9-1.6c2.6,0,3.9,1.4,3.9,4.1C743.5,427,743.1,429.2,742.5,432.1L742.5,432.1L742.5,432.1z
		 M786,419.5l-1.3-0.3c-2.5-0.5-4.9-0.7-7.2-0.7c-3,0-5.4,0.9-7.3,2.6c-1.9,1.7-2.9,3.9-2.9,6.6c0,1.6,0.5,2.8,1.6,3.5
		c1.1,0.8,2.7,1.4,5,1.9s3.8,1,4.6,1.5c0.7,0.4,1.1,1.2,1.1,2.3c0,2-0.7,3.5-2.2,4.5c-1.4,1-3.2,1.5-5.4,1.5s-4.9-0.3-8.1-0.8
		l-0.6,2.5l1.2,0.3c2.2,0.6,4.6,0.8,7,0.8c3.3,0,6-0.8,8.1-2.4c2.1-1.6,3.2-4,3.2-7c0-1.8-0.5-3-1.6-3.8c-1.1-0.7-2.8-1.4-5.1-1.9
		c-2.4-0.6-3.9-1.1-4.6-1.5c-0.7-0.5-1-1.2-1-2.1c0-1.6,0.6-2.9,1.8-4s2.9-1.7,5-1.7s4.8,0.2,8,0.7L786,419.5L786,419.5z
		 M793.2,435.7l3.3-13.9h7.8l0.7-2.8h-7.8l2-8H796l-1.9,8h-3.6l-0.7,2.8h3.6l-3.2,13.7c-0.6,2.4-0.9,4.3-0.9,5.7s0.5,2.5,1.4,3.4
		s2.2,1.3,3.7,1.3c1.6,0,3.2-0.2,5.1-0.6l0.2-2.5l-4.2,0.3c-1.9,0-2.9-0.9-2.9-2.7C792.5,439.2,792.7,437.6,793.2,435.7L793.2,435.7
		L793.2,435.7z"/>
</g>
</svg>
